<svg width="512" height="512" viewBox="0 0 512 512" fill="none" xmlns="http://www.w3.org/2000/svg">
  <!-- Background Circle -->
  <circle cx="256" cy="256" r="256" fill="#3b82f6"/>
  
  <!-- Ticket Shape -->
  <rect x="128" y="180" width="256" height="152" rx="16" fill="white"/>
  
  <!-- Ticket Perforation -->
  <circle cx="128" cy="256" r="12" fill="#3b82f6"/>
  <circle cx="384" cy="256" r="12" fill="#3b82f6"/>
  
  <!-- Event Icon -->
  <rect x="160" y="212" width="80" height="88" rx="8" fill="#3b82f6"/>
  <circle cx="200" cy="240" r="8" fill="white"/>
  <rect x="180" y="260" width="40" height="4" rx="2" fill="white"/>
  <rect x="180" y="270" width="32" height="4" rx="2" fill="white"/>
  <rect x="180" y="280" width="24" height="4" rx="2" fill="white"/>
  
  <!-- Blockchain Elements -->
  <rect x="272" y="212" width="16" height="16" rx="2" fill="#3b82f6"/>
  <rect x="296" y="212" width="16" height="16" rx="2" fill="#3b82f6"/>
  <rect x="320" y="212" width="16" height="16" rx="2" fill="#3b82f6"/>
  
  <!-- Connection Lines -->
  <line x1="288" y1="220" x2="296" y2="220" stroke="#3b82f6" stroke-width="2"/>
  <line x1="312" y1="220" x2="320" y2="220" stroke="#3b82f6" stroke-width="2"/>
  
  <!-- QR Code Representation -->
  <rect x="272" y="248" width="64" height="64" rx="4" fill="#f3f4f6"/>
  <rect x="276" y="252" width="8" height="8" fill="#1f2937"/>
  <rect x="288" y="252" width="8" height="8" fill="#1f2937"/>
  <rect x="300" y="252" width="8" height="8" fill="#1f2937"/>
  <rect x="324" y="252" width="8" height="8" fill="#1f2937"/>
  <rect x="276" y="264" width="8" height="8" fill="#1f2937"/>
  <rect x="300" y="264" width="8" height="8" fill="#1f2937"/>
  <rect x="312" y="264" width="8" height="8" fill="#1f2937"/>
  <rect x="324" y="264" width="8" height="8" fill="#1f2937"/>
  <rect x="288" y="276" width="8" height="8" fill="#1f2937"/>
  <rect x="300" y="276" width="8" height="8" fill="#1f2937"/>
  <rect x="324" y="276" width="8" height="8" fill="#1f2937"/>
  <rect x="276" y="288" width="8" height="8" fill="#1f2937"/>
  <rect x="288" y="288" width="8" height="8" fill="#1f2937"/>
  <rect x="312" y="288" width="8" height="8" fill="#1f2937"/>
  <rect x="324" y="288" width="8" height="8" fill="#1f2937"/>
  <rect x="276" y="300" width="8" height="8" fill="#1f2937"/>
  <rect x="300" y="300" width="8" height="8" fill="#1f2937"/>
  <rect x="312" y="300" width="8" height="8" fill="#1f2937"/>
  
  <!-- Brand Text -->
  <text x="256" y="380" text-anchor="middle" font-family="Arial, sans-serif" font-size="32" font-weight="bold" fill="white">EventXX</text>
</svg>